<?xml version="1.0" encoding="utf-8"?>
<!-- Generator: Adobe Illustrator 18.0.0, SVG Export Plug-In . SVG Version: 6.00 Build 0)  -->
<!DOCTYPE svg PUBLIC "-//W3C//DTD SVG 1.1//EN" "http://www.w3.org/Graphics/SVG/1.1/DTD/svg11.dtd">
<svg version="1.1" id="pongs" xmlns="http://www.w3.org/2000/svg" xmlns:xlink="http://www.w3.org/1999/xlink" x="0px" y="0px"
	 viewBox="0 0 1400 1400" enable-background="new 0 0 1400 1400" xml:space="preserve">
<g id="paddle_x5F_base_copy">
</g>
<g id="handle_copy">
	<g id="handle_x5F_ring_copy">
		<g id="XMLID_2_">
			<g>
				<g>
					<path fill="#C5C5C5" d="M310.1,177.4c36.3,0,72.1,7.2,106.4,21.5c35.4,14.7,67.5,36.3,95.5,64.2c36.3,36.1,64.8,69.6,85,99.6
						c17.6,26.3,29.3,50.6,34.6,72.3c7.1,29.1,3.8,54.5-10.8,82.3c-15.9,30.2-44.3,61-72.7,89.8l-0.1,0.1l-0.1,0.1
						c-7.8,8-15.8,15.9-24.2,24.3c-4.2,4.2-8.6,8.5-13,12.9L474.1,681c-57.5,56.7-97.3,87.4-142.8,87.4c-9.5,0-19.2-1.3-29.6-4
						l-4.1-1c-19.9-5.7-42-16.4-65.8-31.9c-28.6-18.6-60.5-44.8-95-77.8c-28.7-27.5-51.1-60.1-66.7-96.7
						c-15-35.2-23.1-73.7-23.5-111.4C45.9,373,72.7,305.6,122.3,256c25.9-25.9,55.6-45.8,88.4-59.2
						C242.2,184,275.7,177.5,310.1,177.4L310.1,177.4L310.1,177.4 M310.1,131.4c-79.4,0-158.4,30.1-220.3,92.1
						C-37.6,351-25,562.1,105,686.9c75,71.9,134.5,109.2,185,122.1c0.2,0,0.2,0,0.2,0c14.3,3.7,28,5.4,41,5.4
						c66.1,0,117.8-44,175.3-100.8c11.9-11.9,24.1-24.1,36.7-36.7c12.8-12.8,25.5-25.2,37.6-37.6c66.8-67.7,116.5-129.1,95.4-215.3
						c-12.9-52.6-52.7-114.8-131.8-193.5C478.7,165.2,394.1,131.4,310.1,131.4L310.1,131.4z"/>
				</g>
				<path fill="#C5C5C5" d="M580.8,639.3c66.7-67.7,116.7-129.1,95.4-215.3c8,22.1,13.8,103.2-11.4,154.1
					c-22.6,45.1-46.4,89.6-17,126.9c0.2,0.2,8.3,9,21.1,22.1l0,0L580.8,639.3L580.8,639.3z"/>
				<path fill="#C5C5C5" d="M853.9,904.9L853.9,904.9c1.7,1.7,1.9,4.1,1,5.8c-9.2,16-20.4,30.8-33.3,43.7s-27.7,24.3-43.7,33.3
					c-1.9,1.2-4.4,0.7-5.8-1c-11.4-12.6-60-66.3-105.3-113.3c-26.9-27.9-56.8-57-75.5-74.8l0,0L507,713.8l0,0
					c11.9-11.7,24-24,36.7-36.7c12.9-12.9,25.5-25.5,37.6-37.6l0.2,0.2l87.6,87.6l0,0c18.2,18.7,45.4,46.6,71.8,72.1
					C787.6,844.7,841,893.2,853.9,904.9z M776.7,873.1L682,778.4c-5.1-5.1-11.7-7.5-18.4-7.5c-6.6,0-13.3,2.4-18.4,7.5
					c-10.2,10.2-10.2,26.7,0,36.7l94.4,94.4c10.2,10.2,26.7,10.2,36.7,0C786.7,899.5,786.7,883,776.7,873.1z"/>
				<path fill="#C5C5C5" d="M682,778.4l94.4,94.4c10.2,10.2,10.2,26.7,0,36.7c-10.2,10.2-26.7,10.2-36.7,0L645.4,815
					c-10.2-10.2-10.2-26.7,0-36.7c5.1-5.1,11.7-7.5,18.4-7.5C670.4,770.9,677.2,773.5,682,778.4z"/>
				<path fill="#C5C5C5" d="M506.6,713.6L506.6,713.6l84.2,85c-11.2-10.7-18.4-17.5-18.7-17.7c-37.4-29.4-81.8-5.6-126.9,17
					c-51.5,25.7-133.7,19.4-154.9,11.2C377.4,831.3,437.9,781.6,506.6,713.6z"/>
			</g>
		</g>
		<g id="XMLID_3_">
			<g>
				<g>
					<path fill="#C5C5C5" d="M1088.3,132.6v46c71.4,0,137.6,26.9,186.4,75.7c52.2,52.2,80.1,121,78.5,193.7
						c-1.6,72.5-32,142.1-85.6,196c0,0,0,0,0,0c-35.9,36.2-69.4,64.8-99.4,84.9c-26.2,17.6-50.5,29.3-72.4,34.8
						c-9.7,2.4-19.2,3.6-28.2,3.6c-22,0-43.3-7-67.1-22c-26.2-16.5-52.3-41.1-76.7-65.1c-0.1-0.1-0.1-0.1-0.2-0.2
						c-8-7.8-15.9-15.8-24.3-24.2c-4.2-4.2-8.5-8.6-12.9-13l-36.6-36.6c-33.4-33.9-58.7-62.2-73.4-90.3
						c-14.4-27.5-17.5-52.9-10-82.1c0.2-0.6,0.3-1.3,0.4-1.9c5.5-20.4,16.4-43.3,32.5-67.9c18.6-28.6,44.8-60.5,77.8-95
						c55.1-57.4,132-90.3,211.2-90.3L1088.3,132.6 M1088.2,132.6c-88.8,0-178.6,35.9-244.3,104.5c-71.9,75-109.2,134.5-122.1,185
						c0,0.2,0,0.2,0,0.2c-22.3,86.9,27.4,147.4,95.4,216.3c11.9,11.9,24.1,24.1,36.7,36.7c12.8,12.8,25.2,25.5,37.6,37.6
						c57,56.2,109.5,100.3,176,100.3c12.5,0,25.6-1.6,39.3-4.9c52.7-13.2,114.8-52.7,193.4-131.9c127.1-127.7,134.4-327.2,7-454.6
						C1246.9,161.5,1168,132.6,1088.2,132.6L1088.2,132.6z"/>
				</g>
				<path fill="#C5C5C5" d="M891.5,712.6c67.7,66.7,129.1,116.7,215.3,95.4c-22.1,8-103.2,13.8-154.1-11.4
					c-45.1-22.6-89.6-46.4-126.9-17c-0.2,0.2-9,8.3-22.1,21.1l0,0L891.5,712.6L891.5,712.6z"/>
				<path fill="#C5C5C5" d="M626,985.7C626,985.7,626,985.9,626,985.7c-1.7,1.7-4.1,1.9-5.8,1c-16-9.2-30.8-20.4-43.7-33.3
					c-12.9-12.9-24.3-27.7-33.3-43.7c-1.2-1.9-0.7-4.4,1-5.8c12.6-11.4,66.3-60,113.3-105.3c27.9-26.9,57-56.8,74.8-75.5l0,0
					l84.7-84.2l0,0c11.7,11.9,24,24,36.7,36.7c12.9,12.9,25.5,25.5,37.6,37.6l-0.2,0.2l-87.4,87.4l0,0
					c-18.7,18.2-46.6,45.4-72.1,71.8C686.2,919.7,637.6,973.1,626,985.7z M657.8,908.5l94.4-94.4c5.1-5.1,7.5-11.7,7.5-18.4
					c0-6.6-2.4-13.3-7.5-18.4c-10.2-10.2-26.7-10.2-36.7,0l-94.4,94.4c-10.2,10.2-10.2,26.7,0,36.7
					C631.3,918.7,647.8,918.7,657.8,908.5z"/>
				<path fill="#C5C5C5" d="M752.4,814.1l-94.7,94.4c-10.2,10.2-26.7,10.2-36.7,0c-10.2-10.2-10.2-26.7,0-36.7l94.4-94.4
					c10.2-10.2,26.7-10.2,36.7,0c5.1,5.1,7.5,11.7,7.5,18.4C760,802.2,757.3,809,752.4,814.1z"/>
				<path fill="#C5C5C5" d="M817.2,638.6L817.2,638.6l-85,84.2c10.7-11.2,17.5-18.4,17.7-18.7c29.4-37.4,5.6-81.8-17-126.9
					c-25.7-51.5-19.4-133.7-11.2-154.9C699.5,509.2,749.3,569.7,817.2,638.6z"/>
			</g>
		</g>
		<g>
			<path fill="#C5C5C5" d="M612.6,1267l-65.8-170.6h38.8l38.3,104.4c12.6-34.5,25.7-70.4,38.1-104.4h39L635.2,1267H612.6L612.6,1267
				z"/>
			<path fill="#C5C5C5" d="M839.8,1219.9c0,33.5-29.1,49-65.8,49c-30.1,0-49.3-12.6-67.5-32l25.5-25.2c6.1,12.6,25,27.2,42,27.2
				c12.4-0.2,29.1-3.4,29.1-18.9c0-15-17-21.1-31.1-25.5c-25.7-7.8-56.8-20.4-56.8-52.9c0-31.1,29.1-47.1,59-47.1
				c25.5,0,49.3,12.6,67.5,32.3l-24.5,24.5c-7.8-10.2-23.8-26.7-42.7-26.7c-10.9,0-22.6,4.9-22.6,17c0,13.8,17,19.7,30.1,23.8
				C808.7,1173.8,839.8,1186.9,839.8,1219.9z"/>
		</g>
	</g>
</g>
</svg>
