<?xml version="1.0" encoding="utf-8"?>
<!-- Generator: Adobe Illustrator 18.0.0, SVG Export Plug-In . SVG Version: 6.00 Build 0)  -->
<!DOCTYPE svg PUBLIC "-//W3C//DTD SVG 1.1//EN" "http://www.w3.org/Graphics/SVG/1.1/DTD/svg11.dtd">
<svg version="1.1" id="Layer_1" xmlns="http://www.w3.org/2000/svg" xmlns:xlink="http://www.w3.org/1999/xlink" x="0px" y="0px"
	 viewBox="0 0 1400 1400" enable-background="new 0 0 1400 1400" xml:space="preserve">
<g id="pongs">
	<g id="handle_copy">
		<g id="handle_x5F_ring_copy">
			<g id="XMLID_2_">
				<g>
					<path fill="#04223A" d="M676.4,590.6c21,85.8-28.5,146.9-95,214.4c-12.1,12.3-24.7,24.7-37.5,37.5
						c-12.6,12.6-24.7,24.7-36.5,36.5c-68.6,67.7-128.8,117.2-215.3,95c0,0,0,0-0.2,0c-50.3-12.8-109.5-50-184.2-121.6
						C-21.8,728.2-34.3,517.9,92.6,391s325.5-119.6,452.6,7C624,476.3,663.4,538.2,676.4,590.6z"/>
					<path fill="#C4AF9B" d="M581.5,805c66.5-67.4,116.2-128.6,95-214.4c8,22,13.8,102.7-11.4,153.5c-22.5,45-46.2,89.2-16.9,126.4
						c0.2,0.2,8.2,8.9,21,22l0,0L581.5,805L581.5,805z"/>
					<path fill="#735853" d="M853.1,1069.4C853.1,1069.4,853.3,1069.4,853.1,1069.4c1.7,1.7,1.9,4.1,1,5.8
						c-9.2,16-20.3,30.7-33.1,43.5c-12.8,12.8-27.6,24.2-43.5,33.1c-1.9,1.2-4.4,0.7-5.8-1c-11.4-12.6-59.7-66-104.9-112.9
						c-26.8-27.8-56.6-56.8-75.2-74.4l0,0L507.5,879l0,0c11.8-11.6,23.9-23.9,36.5-36.5c12.8-12.8,25.4-25.4,37.5-37.5l0.2,0.2
						l87.2,87.2l0,0c18.1,18.6,45.2,46.4,71.5,71.8C787.4,1009.5,840.5,1057.8,853.1,1069.4z M776.2,1037.7l-94-94
						c-5.1-5.1-11.6-7.5-18.4-7.5c-6.5,0-13.3,2.4-18.4,7.5c-10.2,10.2-10.2,26.6,0,36.5l94,94c10.2,10.2,26.6,10.2,36.5,0
						C786.4,1064.1,786.4,1047.6,776.2,1037.7z"/>
					<path fill="#04223A" d="M682.2,943.5l94,94c10.2,10.2,10.2,26.6,0,36.5c-10.2,10.2-26.6,10.2-36.5,0l-94-94
						c-10.2-10.2-10.2-26.6,0-36.5c5.1-5.1,11.6-7.5,18.4-7.5C670.6,936,677.2,938.4,682.2,943.5z"/>
					<path fill="#C4AF9B" d="M507.5,879L507.5,879l83.9,84.6c-11.1-10.6-18.4-17.4-18.6-17.6c-37.2-29.2-81.4-5.6-126.4,16.9
						c-51.2,25.6-133.2,19.3-154.2,11.1C378.7,996.2,438.9,946.6,507.5,879z"/>
				</g>
				<g>
					<path fill="none" stroke="#000000" stroke-width="3" stroke-miterlimit="10" d="M291.9,973.9c-50.3-12.8-109.5-50-184.2-121.6
						C-21.8,728.2-34.3,517.9,92.6,391s325.5-119.6,452.6,7c78.8,78.3,118.2,140.2,131.2,192.9c21,85.8-28.5,146.9-95,214.4
						c-12.1,12.3-24.7,24.7-37.5,37.5c-12.6,12.6-24.7,24.7-36.5,36.5C438.9,946.6,378.7,996.2,291.9,973.9"/>
					<path fill="none" stroke="#000000" stroke-width="3" stroke-miterlimit="10" d="M591.4,963.5c18.6,17.9,48.3,46.6,75.2,74.4
						c45.2,46.9,93.5,100.3,104.9,112.9c1.5,1.7,3.9,1.9,5.8,1c16-9.2,30.7-20.3,43.5-33.1c12.8-12.8,24.2-27.6,33.1-43.5
						c1-1.9,0.7-4.1-0.7-5.6c0,0,0,0-0.2-0.2c-12.6-11.4-65.7-59.7-112.6-104.9c-26.1-25.4-53.4-53.2-71.5-71.8
						c-12.6-13.1-20.8-21.8-21-22c-29.2-37.2-5.6-81.4,16.9-126.4c25.4-50.5,19.6-131.2,11.4-153.5c0-0.2-0.2-0.7-0.2-1"/>
					<path fill="none" stroke="#000000" stroke-width="3" stroke-miterlimit="10" d="M291.9,973.9L291.9,973.9
						c21,8.2,103,14.5,154.2-11.1c45-22.5,89.2-46.2,126.4-16.9c0.2,0.2,7.5,7,18.6,17.6"/>
					<polyline fill="none" stroke="#000000" stroke-width="3" stroke-miterlimit="10" points="592.1,964.3 591.4,963.5 591.1,963.5 
						507.5,879 					"/>
					<line fill="none" stroke="#000000" stroke-width="3" stroke-miterlimit="10" x1="668.9" y1="892.5" x2="581.5" y2="805.2"/>
					<path fill="none" stroke="#000000" stroke-width="3" stroke-miterlimit="10" d="M776.2,1074.2c-10.2,10.2-26.6,10.2-36.5,0
						l-94-94c-10.2-10.2-10.2-26.6,0-36.5c5.1-5.1,11.6-7.5,18.4-7.5c6.5,0,13.3,2.4,18.4,7.5l94,94
						C786.4,1047.6,786.4,1064.1,776.2,1074.2z"/>
				</g>
			</g>
			<g id="XMLID_3_">
				<g>
					<path fill="#A22D29" d="M1104.9,973.2c-85.8,21-146.9-28.5-214.4-95c-12.3-12.1-24.7-24.7-37.5-37.5
						c-12.6-12.6-24.7-24.7-36.5-36.5c-67.7-68.6-117.2-128.8-95-215.3c0,0,0,0,0-0.2c12.8-50.3,50-109.5,121.6-184.2
						c124.2-129.5,334.5-142.1,461.3-15.2s119.6,325.5-7,452.6C1219.5,920.5,1157.6,960.2,1104.9,973.2z"/>
					<path fill="#C4AF9B" d="M890.6,878c67.4,66.5,128.6,116.2,214.4,95c-22,8-102.7,13.8-153.5-11.4c-45-22.5-89.2-46.2-126.4-16.9
						c-0.2,0.2-8.9,8.2-22,21l0,0L890.6,878L890.6,878z"/>
					<path fill="#735853" d="M626.4,1149.9C626.2,1149.9,626.2,1149.9,626.4,1149.9c-1.7,1.7-4.1,1.9-5.8,1
						c-16-9.2-30.7-20.3-43.5-33.1c-12.8-12.8-24.2-27.6-33.1-43.5c-1.2-1.9-0.7-4.4,1-5.8c12.6-11.4,66-59.7,112.9-104.9
						c27.8-26.8,56.8-56.6,74.4-75.2l0,0l84.3-83.9l0,0c11.6,11.8,23.9,23.9,36.5,36.5c12.8,12.8,25.4,25.4,37.5,37.5l-0.2,0.2
						L803.1,966l0,0c-18.6,18.1-46.4,45.2-71.8,71.5C686.1,1084.1,637.8,1137.1,626.4,1149.9z M658.1,1073l94-94
						c5.1-5.1,7.5-11.6,7.5-18.4c0-6.5-2.4-13.3-7.5-18.4c-10.2-10.2-26.6-10.2-36.5,0l-94,94c-10.2,10.2-10.2,26.6,0,36.5
						C631.7,1082.7,647.9,1082.9,658.1,1073z"/>
					<path fill="#A22D29" d="M752.1,979l-94,94c-10.2,10.2-26.6,10.2-36.5,0c-9.9-10.2-10.2-26.6,0-36.5l94-94
						c10.2-10.2,26.6-10.2,36.5,0c5.1,5.1,7.5,11.6,7.5,18.4C759.6,967.2,757.2,973.9,752.1,979z"/>
					<path fill="#C4AF9B" d="M816.6,804L816.6,804L732,887.9c10.6-11.1,17.4-18.4,17.6-18.6c29.2-37.2,5.6-81.4-16.9-126.4
						c-25.6-51.2-19.3-133.2-11.1-154.2C699.4,675.5,748.9,735.6,816.6,804z"/>
				</g>
				<g>
					<path fill="none" stroke="#000000" stroke-width="3" stroke-miterlimit="10" d="M721.6,588.7c12.8-50.3,50-109.5,121.6-184.2
						c124.2-129.5,334.5-142.1,461.3-15.2s119.6,325.5-7,452.6c-78.3,78.8-140.2,118.2-192.9,131.2c-85.8,21-146.9-28.5-214.4-95
						c-12.3-12.1-24.7-24.7-37.5-37.5c-12.6-12.6-24.7-24.7-36.5-36.5C748.9,735.6,699.4,675.5,721.6,588.7"/>
					<path fill="none" stroke="#000000" stroke-width="3" stroke-miterlimit="10" d="M732,888.1c-17.9,18.6-46.6,48.3-74.4,75.2
						c-46.9,45.2-100.3,93.5-112.9,104.9c-1.7,1.4-1.9,3.9-1,5.8c9.2,16,20.3,30.7,33.1,43.5c12.8,12.8,27.6,24.2,43.5,33.1
						c1.9,1,4.1,0.7,5.6-0.7c0,0,0,0,0.2-0.2c11.4-12.6,59.7-65.7,104.9-112.6c25.4-26.1,53.2-53.4,71.8-71.5
						c13.1-12.6,21.8-20.8,22-21c37.2-29.2,81.4-5.6,126.4,16.9c50.5,25.4,131.2,19.6,153.5,11.4c0.2,0,0.7-0.2,1-0.2"/>
					<path fill="none" stroke="#000000" stroke-width="3" stroke-miterlimit="10" d="M721.6,588.7L721.6,588.7
						c-8.2,21-14.5,103,11.1,154.2c22.5,45,46.2,89.2,16.9,126.4c-0.2,0.2-7,7.5-17.6,18.6"/>
					<polyline fill="none" stroke="#000000" stroke-width="3" stroke-miterlimit="10" points="731.3,888.9 732,888.1 732.3,887.9 
						816.6,804.3 					"/>
					<line fill="none" stroke="#000000" stroke-width="3" stroke-miterlimit="10" x1="803.1" y1="965.7" x2="890.6" y2="878.2"/>
					<path fill="none" stroke="#000000" stroke-width="3" stroke-miterlimit="10" d="M621.6,1073c-10.2-10.2-10.2-26.6,0-36.5l94-94
						c10.2-10.2,26.6-10.2,36.5,0c5.1,5.1,7.5,11.6,7.5,18.4c0,6.5-2.4,13.3-7.5,18.4l-94,94C647.9,1082.9,631.5,1082.9,621.6,1073z
						"/>
				</g>
			</g>
		</g>
	</g>
</g>
</svg>
