<?xml version="1.0" encoding="utf-8"?>
<!-- Generator: Adobe Illustrator 18.0.0, SVG Export Plug-In . SVG Version: 6.00 Build 0)  -->
<!DOCTYPE svg PUBLIC "-//W3C//DTD SVG 1.1//EN" "http://www.w3.org/Graphics/SVG/1.1/DTD/svg11.dtd">
<svg version="1.1" id="Layer_1" xmlns="http://www.w3.org/2000/svg" xmlns:xlink="http://www.w3.org/1999/xlink" x="0px" y="0px"
	 viewBox="2.3 295.9 853.7 856" enable-background="new 2.3 295.9 853.7 856" xml:space="preserve">
<g id="pongs">
	<g id="handle_copy">
		<g id="handle_x5F_ring_copy">
			<g id="XMLID_2_">
				<g>
					<path fill="#A22C29" d="M676.5,588.6c21,85.8-28.5,146.9-95,214.4c-12.1,12.3-24.7,24.7-37.5,37.5
						c-12.6,12.6-24.7,24.7-36.5,36.5c-68.6,67.7-128.8,117.2-215.3,95c0,0,0,0-0.2,0c-50.3-12.8-109.5-50-184.2-121.6
						C-21.7,726.2-34.3,515.9,92.6,389s325.5-119.6,452.6,7C624,474.3,663.4,536.2,676.5,588.6z"/>
					<path fill="#C4AF9B" d="M581.5,803c66.5-67.4,116.2-128.6,95-214.4c8,22,13.8,102.7-11.4,153.5c-22.5,45-46.2,89.2-16.9,126.4
						c0.2,0.2,8.2,8.9,21,22l0,0L581.5,803L581.5,803z"/>
					<path fill="#735853" d="M853.1,1067.4C853.1,1067.4,853.4,1067.4,853.1,1067.4c1.7,1.7,1.9,4.1,1,5.8
						c-9.2,16-20.3,30.7-33.1,43.5c-12.8,12.8-27.6,24.2-43.5,33.1c-1.9,1.2-4.4,0.7-5.8-1c-11.4-12.6-59.7-66-104.9-112.9
						c-26.8-27.8-56.6-56.8-75.2-74.4l0,0L507.6,877l0,0c11.8-11.6,23.9-23.9,36.5-36.5c12.8-12.8,25.4-25.4,37.5-37.5l0.2,0.2
						l87.2,87.2l0,0c18.1,18.6,45.2,46.4,71.5,71.8C787.4,1007.5,840.6,1055.8,853.1,1067.4z M776.3,1035.7l-94-94
						c-5.1-5.1-11.6-7.5-18.4-7.5c-6.5,0-13.3,2.4-18.4,7.5c-10.2,10.2-10.2,26.6,0,36.5l94,94c10.2,10.2,26.6,10.2,36.5,0
						C786.4,1062.1,786.4,1045.6,776.3,1035.7z"/>
					<path fill="#A22C29" d="M682.3,941.5l94,94c10.2,10.2,10.2,26.6,0,36.5c-10.2,10.2-26.6,10.2-36.5,0l-94-94
						c-10.2-10.2-10.2-26.6,0-36.5c5.1-5.1,11.6-7.5,18.4-7.5C670.7,934,677.2,936.4,682.3,941.5z"/>
					<path fill="#C4AF9B" d="M507.6,877L507.6,877l83.9,84.6c-11.1-10.6-18.4-17.4-18.6-17.6c-37.2-29.2-81.4-5.6-126.4,16.9
						c-51.2,25.6-133.2,19.3-154.2,11.1C378.7,994.2,438.9,944.6,507.6,877z"/>
				</g>
				<g display="none">
					<path display="inline" fill="none" d="M292,971.9c-50.3-12.8-109.5-50-184.2-121.6C-21.7,726.2-34.3,515.9,92.6,389
						s325.5-119.6,452.6,7c78.8,78.3,118.2,140.2,131.2,192.9c21,85.8-28.5,146.9-95,214.4c-12.1,12.3-24.7,24.7-37.5,37.5
						c-12.6,12.6-24.7,24.7-36.5,36.5C438.9,944.6,378.7,994.2,292,971.9"/>
					<path display="inline" fill="none" stroke="#000000" stroke-width="3" stroke-miterlimit="10" d="M591.4,961.5
						c18.6,17.9,48.3,46.6,75.2,74.4c45.2,46.9,93.5,100.3,104.9,112.9c1.5,1.7,3.9,1.9,5.8,1c16-9.2,30.7-20.3,43.5-33.1
						c12.8-12.8,24.2-27.6,33.1-43.5c1-1.9,0.7-4.1-0.7-5.6c0,0,0,0-0.2-0.2c-12.6-11.4-65.7-59.7-112.6-104.9
						c-26.1-25.4-53.4-53.2-71.5-71.8c-12.6-13.1-20.8-21.8-21-22c-29.2-37.2-5.6-81.4,16.9-126.4c25.4-50.5,19.6-131.2,11.4-153.5
						c0-0.2-0.2-0.7-0.2-1"/>
					<path display="inline" fill="none" stroke="#000000" stroke-width="3" stroke-miterlimit="10" d="M292,971.9L292,971.9
						c21,8.2,103,14.5,154.2-11.1c45-22.5,89.2-46.2,126.4-16.9c0.2,0.2,7.5,7,18.6,17.6"/>
					<polyline display="inline" fill="none" stroke="#000000" stroke-width="3" stroke-miterlimit="10" points="592.1,962.3 
						591.4,961.5 591.2,961.5 507.6,877 					"/>
					
						<line display="inline" fill="none" stroke="#000000" stroke-width="3" stroke-miterlimit="10" x1="669" y1="890.5" x2="581.5" y2="803.2"/>
					<path display="inline" fill="none" stroke="#000000" stroke-width="3" stroke-miterlimit="10" d="M776.3,1072.2
						c-10.2,10.2-26.6,10.2-36.5,0l-94-94c-10.2-10.2-10.2-26.6,0-36.5c5.1-5.1,11.6-7.5,18.4-7.5c6.5,0,13.3,2.4,18.4,7.5l94,94
						C786.4,1045.6,786.4,1062.1,776.3,1072.2z"/>
				</g>
			</g>
		</g>
	</g>
</g>
<path fill="#FFFFFF" d="M434.7,578.1h-69.4v-69.4c0-13.1-10.7-23.8-23.8-23.8h-25.6c-13.1,0-23.8,10.7-23.8,23.8v69.4h-69.4
	c-13.1,0-23.8,10.7-23.8,23.8v25.6c0,13.1,10.7,23.8,23.8,23.8h69.4v69.4c0,13.1,10.7,23.8,23.8,23.8h25.6
	c13.1,0,23.8-10.7,23.8-23.8v-69.4h69.4c13.1,0,23.8-10.7,23.8-23.8V602C458.5,588.9,447.8,578.1,434.7,578.1z"/>
</svg>
