<?xml version="1.0" encoding="utf-8"?>
<!-- Generator: Adobe Illustrator 18.0.0, SVG Export Plug-In . SVG Version: 6.00 Build 0)  -->
<!DOCTYPE svg PUBLIC "-//W3C//DTD SVG 1.1//EN" "http://www.w3.org/Graphics/SVG/1.1/DTD/svg11.dtd">
<svg version="1.1" id="Layer_1" xmlns="http://www.w3.org/2000/svg" xmlns:xlink="http://www.w3.org/1999/xlink" x="0px" y="0px"
	 viewBox="-0.1 80.6 799.9 438.7" enable-background="new -0.1 80.6 799.9 438.7" xml:space="preserve">
<text transform="matrix(0.9472 -0.3207 0.3207 0.9472 165.8137 434.2989)" fill="#008148" font-family="'PierSans-Bold'" font-size="143.6351" letter-spacing="9">READY</text>
<g>
	<path fill="#008148" d="M717.9,116.8l45.9,135.5L82.1,483L36.2,347.5L717.9,116.8 M726.1,80.6c-2.1,0-4.3,0.3-6.2,1L13.3,320.8
		C2.9,324.3-2.5,335.6,1,345.7L55.2,506c2.8,8.2,10.5,13.3,18.7,13.3c2.1,0,4.3-0.3,6.2-1L786.6,279c10.3-3.4,15.7-14.7,12.3-24.9
		L744.8,93.9C742,85.8,734.3,80.6,726.1,80.6L726.1,80.6z"/>
</g>
</svg>
